<svg width="28" height="28" viewBox="0 0 28 28" fill="none" xmlns="http://www.w3.org/2000/svg">
<path d="M25.925 27.5C22.7 27.5 19.5565 26.781 16.4945 25.343C13.4315 23.906 10.719 22.006 8.357 19.643C5.994 17.281 4.094 14.5685 2.657 11.5055C1.219 8.4435 0.5 5.3 0.5 2.075C0.5 1.625 0.65 1.25 0.95 0.95C1.25 0.65 1.625 0.5 2.075 0.5H8.15C8.5 0.5 8.8125 0.6125 9.0875 0.8375C9.3625 1.0625 9.525 1.35 9.575 1.7L10.55 6.95C10.6 7.3 10.594 7.6185 10.532 7.9055C10.469 8.1935 10.325 8.45 10.1 8.675L6.5 12.35C7.55 14.15 8.8625 15.8375 10.4375 17.4125C12.0125 18.9875 13.75 20.35 15.65 21.5L19.175 17.975C19.4 17.75 19.694 17.581 20.057 17.468C20.419 17.356 20.775 17.325 21.125 17.375L26.3 18.425C26.65 18.5 26.9375 18.6685 27.1625 18.9305C27.3875 19.1935 27.5 19.5 27.5 19.85V25.925C27.5 26.375 27.35 26.75 27.05 27.05C26.75 27.35 26.375 27.5 25.925 27.5Z" fill="#231F20"/>
</svg>
